#!OML:ASF E:\emotionWalksFemale\Project 1\Capture day 1\Session 1\Female1.ASF
:FULLY-SPECIFIED
:DEGREES
32
root 8.73157 15.5644 21.2001 -178.498 1.35209 -179.531
lowerback 9.86179 1.67978 2.11635
upperback -3.33311 2.58351 0.285012
thorax -9.01498 1.15006 -1.33901
lowerneck -5.24668 -3.10749 -7.47446
upperneck 7.6446 -4.24066 7.0549
head 3.43816 -2.06333 3.16167
rclavicle -2.52084e-014 -1.61016e-014
rhumerus -58.6592 -10.2003 -70.1066
rradius 28.0087
rwrist 36.5098
rhand -4.83803 -54.2165
rfingers 7.12502
rthumb 20.949 -83.1052
lclavicle -2.52084e-014 -1.61016e-014
lhumerus -56.3269 18.6177 64.2276
lradius 29.6826
lwrist -18.0013
lhand 3.49594 -34.5756
lfingers 7.12502
lthumb 28.9344 -6.80062
rfemur 1.02303 19.5123 26.2446
rtibia 11.6971
rfoot -14.0685 -31.3735
rtoes 2.0095
lfemur -6.06134 -22.5294 -22.4925
ltibia 21.8532
lfoot -22.7204 19.9364
ltoes -13.9873
33
root 8.73059 15.5639 21.2083 -178.472 1.47329 -179.459
lowerback 9.815 1.66069 2.17651
upperback -3.23096 2.56186 0.300908
thorax -8.87528 1.13897 -1.34801
lowerneck -5.31342 -3.08194 -7.45126
upperneck 7.51163 -4.19493 7.08448
head 3.40607 -2.03563 3.16886
rclavicle -8.82107e-016 -1.78906e-015
rhumerus -58.3707 -10.5424 -70.1206
rradius 28.0648
rwrist 36.9461
rhand -5.13285 -53.7079
rfingers 7.12502
rthumb 20.6658 -82.6276
lclavicle -8.82107e-016 -1.78906e-015
lhumerus -55.936 19.1097 64.3912
lradius 29.4482
lwrist -18.2954
lhand 4.38814 -35.038
lfingers 7.12502
lthumb 29.7862 -7.41221
rfemur 1.00188 19.5023 26.3018
rtibia 11.5824
rfoot -13.6906 -31.3569
rtoes 0.813218
lfemur -6.13515 -22.4708 -22.3934
ltibia 21.9192
lfoot -22.7178 20.0277
ltoes -14.7384
34
root 8.73064 15.5663 21.2182 -178.383 1.60769 -179.375
lowerback 9.87151 1.6416 2.22111
upperback -3.24166 2.54584 0.317213
thorax -8.91951 1.12847 -1.35535
lowerneck -5.33719 -3.06104 -7.3934
upperneck 7.44857 -4.1618 7.05145
head 3.38679 -2.01761 3.15087
rclavicle -1.61513e-015 1.98785e-016
rhumerus -58.0465 -10.9412 -69.9429
rradius 27.9927
rwrist 37.5265
rhand -5.22463 -53.4037
rfingers 7.12502
rthumb 20.5776 -82.3331
lclavicle -1.61513e-015 1.98785e-016
lhumerus -55.7344 19.399 64.4515
lradius 29.434
lwrist -18.4791
lhand 5.14097 -35.7822
lfingers 7.12502
lthumb 30.5044 -8.2875
rfemur 0.91916 19.5486 26.3496
rtibia 11.4172
rfoot -13.3663 -31.3647
rtoes -0.0634076
lfemur -6.31698 -22.462 -22.2449
ltibia 22.0151
lfoot -22.7756 20.0647
ltoes -14.8162
35
root 8.73363 15.5698 21.2345 -178.248 1.67454 -179.233
lowerback 10.0295 1.59077 2.31303
upperback -3.2972 2.49818 0.329409
thorax -9.07117 1.09776 -1.39285
lowerneck -5.31053 -3.05398 -7.27927
upperneck 7.30188 -4.1463 6.97619
head 3.33339 -2.00884 3.11068
rclavicle -2.84417e-014 -1.33186e-014
rhumerus -57.7373 -11.1232 -69.9074
rradius 28.1693
rwrist 37.8162
rhand -5.15471 -53.4349
rfingers 7.12502
rthumb 20.6448 -82.357
lclavicle -2.84417e-014 -1.33186e-014
lhumerus -55.5223 19.4102 64.5314
lradius 29.5914
lwrist -18.3546
lhand 5.44098 -36.324
lfingers 7.12502
lthumb 30.7905 -8.8828
rfemur 0.727178 19.7802 26.4436
rtibia 11.3212
rfoot -13.6412 -31.445
rtoes 0.908797
lfemur -6.59457 -22.3585 -21.9663
ltibia 22.0777
lfoot -22.7056 19.9601
ltoes -14.4861
36
root 8.73522 15.5703 21.249 -178.133 1.73129 -179.111
lowerback 10.1461 1.51643 2.34687
upperback -3.34872 2.41094 0.350868
thorax -9.19881 1.05199 -1.3791
lowerneck -5.2215 -2.99454 -7.19532
upperneck 7.15151 -4.0729 7.00082
head 3.26695 -1.97069 3.1099
rclavicle -6.22444e-015 -1.98785e-015
rhumerus -57.4901 -11.2138 -69.7611
rradius 28.4903
rwrist 38.0447
rhand -5.14476 -53.1228
rfingers 7.12502
rthumb 20.6543 -82.0438
lclavicle -6.22444e-015 -1.98785e-015
lhumerus -55.3432 19.4698 64.4101
lradius 29.7823
lwrist -18.1881
lhand 5.44606 -36.3099
lfingers 7.12502
lthumb 30.7953 -8.86958
rfemur 0.525036 19.8974 26.5192
rtibia 11.3248
rfoot -13.9326 -31.4859
rtoes 1.18914
lfemur -6.81457 -22.2556 -21.7304
ltibia 22.089
lfoot -22.7447 19.8343
ltoes -13.4754
37
root 8.73292 15.5707 21.2576 -178.042 1.91285 -179.167
lowerback 10.2428 1.48452 2.2368
upperback -3.40879 2.35479 0.323269
thorax -9.32622 1.0276 -1.34135
lowerneck -5.12893 -2.90878 -7.12183
upperneck 7.03525 -3.96793 7.04593
head 3.20852 -1.91711 3.11854
rclavicle 1.51138e-014 -3.57812e-015
rhumerus -57.1493 -11.2876 -69.4915
rradius 28.7325
rwrist 38.2117
rhand -4.96728 -52.7561
rfingers 7.12502
rthumb 20.8248 -81.6585
lclavicle 1.51138e-014 -3.57812e-015
lhumerus -55.1977 19.5724 64.1113
lradius 30.0125
lwrist -18.0168
lhand 5.51032 -36.0654
lfingers 7.12502
lthumb 30.8566 -8.63674
rfemur 0.314336 19.8556 26.3792
rtibia 11.4078
rfoot -13.8982 -31.3402
rtoes 0.232796
lfemur -6.92344 -22.2473 -21.7606
ltibia 22.055
lfoot -22.7908 20.0359
ltoes -13.2303
38
root 8.72961 15.5727 21.266 -177.95 2.18342 -179.265
lowerback 10.3013 1.49319 2.2138
upperback -3.44061 2.35405 0.210129
thorax -9.39131 1.0227 -1.45155
lowerneck -5.11498 -2.85661 -6.9983
upperneck 6.96562 -3.90938 7.08456
head 3.17941 -1.88423 3.11345
rclavicle 2.68872e-014 9.34288e-015
rhumerus -56.598 -11.3342 -69.3666
rradius 28.8961
rwrist 37.9657
rhand -4.55617 -53.1054
rfingers 7.12502
rthumb 21.2198 -81.964
lclavicle 2.68872e-014 9.34288e-015
lhumerus -54.9157 19.4137 63.7769
lradius 30.2776
lwrist -17.6393
lhand 5.50026 -36.3118
lfingers 7.12502
lthumb 30.847 -8.8813
rfemur 0.0456836 19.8298 26.167
rtibia 11.5819
rfoot -13.7713 -31.0729
rtoes -0.142894
lfemur -6.98008 -22.2305 -21.8572
ltibia 21.9791
lfoot -22.6465 20.3972
ltoes -13.8445
39
root 8.72729 15.575 21.2737 -177.852 2.44379 -179.315
lowerback 9.91623 1.50148 2.2579
upperback -3.23507 2.34303 0.111061
thorax -8.93536 1.01963 -1.56166
lowerneck -5.19231 -2.81663 -6.91045
upperneck 6.79839 -3.85012 7.136
head 3.1372 -1.84801 3.11722
rclavicle -1.79846e-014 -2.78299e-015
rhumerus -55.6425 -11.5392 -69.1672
rradius 28.9798
rwrist 37.5326
rhand -4.21728 -53.651
rfingers 7.12502
rthumb 21.5453 -82.4726
lclavicle -1.79846e-014 -2.78299e-015
lhumerus -54.2667 19.3111 63.4399
lradius 30.5155
lwrist -17.0002
lhand 5.30261 -36.422
lfingers 7.12502
lthumb 30.6586 -8.95604
rfemur -0.246383 19.8631 26.0192
rtibia 11.7824
rfoot -13.6915 -30.9091
rtoes 0.0874268
lfemur -7.0322 -22.2025 -21.8938
ltibia 21.892
lfoot -22.691 20.6699
ltoes -13.7523
40
root 8.72582 15.5761 21.2807 -177.781 2.65102 -179.312
lowerback 9.2529 1.49969 2.29078
upperback -2.82612 2.31149 0.0989286
thorax -8.10509 1.01814 -1.55538
lowerneck -5.34283 -2.78847 -6.92424
upperneck 6.45188 -3.77432 7.15086
head 3.05365 -1.80334 3.1268
rclavicle 3.45388e-014 2.08724e-015
rhumerus -54.5414 -11.5385 -69.0064
rradius 29.3332
rwrist 36.5192
rhand -4.51531 -53.7754
rfingers 7.12502
rthumb 21.259 -82.6295
lclavicle 3.45388e-014 2.08724e-015
lhumerus -53.3242 19.5581 63.0066
lradius 30.6627
lwrist -16.3139
lhand 5.18174 -35.9276
lfingers 7.12502
lthumb 30.5433 -8.44012
rfemur -0.432164 19.9334 25.9613
rtibia 11.8861
rfoot -13.9766 -30.7912
rtoes 0.830635
lfemur -7.08681 -22.1908 -21.8752
ltibia 21.847
lfoot -22.8812 20.8253
ltoes -13.3764
